Coordinates
version=1
nRows=10
nColumns=40
inDegrees=yes

Units are S.I. units (second, meters, Newtons, ...)
Angles are in degrees.

endheader
time	pelvis_tilt	pelvis_list	pelvis_rotation	pelvis_tx	pelvis_ty	pelvis_tz	hip_flexion_r	hip_adduction_r	hip_rotation_r	knee_angle_r	knee_angle_r_beta	ankle_angle_r	subtalar_angle_r	mtp_angle_r	hip_flexion_l	hip_adduction_l	hip_rotation_l	knee_angle_l	knee_angle_l_beta	ankle_angle_l	subtalar_angle_l	mtp_angle_l	lumbar_extension	lumbar_bending	lumbar_rotation	arm_flex_r	arm_add_r	arm_rot_r	elbow_flex_r	pro_sup_r	wrist_flex_r	wrist_dev_r	arm_flex_l	arm_add_l	arm_rot_l	elbow_flex_l	pro_sup_l	wrist_flex_l	wrist_dev_l
      8.36314286	     -2.71626780	     -2.90116020	     -5.53405189	      1.01851828	      0.93211064	      0.43078388	     23.29896648	     -4.66754394	    -12.93497663	     13.26182209	     13.26182209	      2.04396904	      8.22711214	      6.68742189	      3.90225147	     -3.91934220	    -12.66506215	     14.75951284	     14.75951284	     13.54232707	     -9.91121814	     -7.38730217	    -10.42569830	      2.47177749	      2.25867982	     -8.03508358	    -13.72346398	     -9.56290959	     27.76664509	     47.12513296	      0.00000000	      0.00000000	     15.35591185	    -15.76890825	    -11.37850476	     73.42201385	     47.22615484	      0.00000000	      0.00000000
      8.37628571	     -2.79896684	     -2.97580144	     -5.52888497	      1.02038778	      0.93144376	      0.43265047	     22.69676989	     -4.38383021	    -13.01822115	     13.83045416	     13.83045416	      2.31374176	      8.01935264	      6.34085466	      3.40014159	     -4.07088266	    -12.65030533	     14.63014901	     14.63014901	     13.86599521	     -9.90378930	     -7.45154450	    -10.00914322	      2.59027156	      2.10119994	     -8.13655329	    -13.70344319	     -9.60765678	     27.86973027	     47.12094333	      0.00000000	      0.00000000	     15.47821621	    -15.71124666	    -11.47581864	     73.59650683	     47.23775673	      0.00000000	      0.00000000
      8.38942857	     -2.59260528	     -2.79197827	     -5.56691843	      1.02252144	      0.93089026	      0.43458214	     22.30558897	     -4.47565024	    -12.64435765	     15.41127766	     15.41127766	      2.70215926	      7.22681635	      5.02090587	      2.37175707	     -3.89437010	    -12.93848504	     14.11000785	     14.11000785	     14.13392484	     -9.28685980	     -7.43025015	    -10.00247953	      2.44660917	      2.10164102	     -8.27976312	    -13.72202410	     -9.80740662	     28.55299897	     47.09518810	      0.00000000	      0.00000000	     15.48721879	    -15.51964065	    -12.08416961	     74.25733602	     47.29607296	      0.00000000	      0.00000000
      8.40257143	     -2.53798763	     -2.80701037	     -5.51364056	      1.02473600	      0.93012521	      0.43677086	     21.57476898	     -4.19002134	    -12.10960771	     15.97846538	     15.97846538	      2.08200353	      6.04433741	      1.56497908	      1.72764215	     -4.08489734	    -13.41945740	     14.07894908	     14.07894908	     14.78068894	     -8.20657761	     -7.20834830	     -9.82349877	      2.50343893	      1.69280501	     -8.81816335	    -13.61101264	    -10.31341895	     31.01005281	     46.97312775	      0.00000000	      0.00000000	     14.87784025	    -15.06674607	    -13.88560029	     75.82284255	     47.46557808	      0.00000000	      0.00000000
      8.41571429	     -2.47961881	     -2.84250256	     -5.40756955	      1.02687467	      0.92944045	      0.43893426	     21.03269272	     -4.03045134	    -11.94189230	     16.90070552	     16.90070552	      2.64572587	      5.68425395	      1.02668413	      1.06464931	     -4.21953774	    -13.38912763	     13.94295845	     13.94295845	     15.07058218	     -8.00343873	     -7.17122592	     -9.60131433	      2.62165998	      1.64846028	     -8.63364831	    -13.61134651	    -10.28204644	     31.15721957	     46.96062397	      0.00000000	      0.00000000	     14.92402895	    -14.98191312	    -13.87487634	     75.81797792	     47.46761022	      0.00000000	      0.00000000
      8.42885714	     -2.41743456	     -2.88459433	     -5.30728239	      1.02906092	      0.92880361	      0.44126230	     20.54236313	     -3.85136575	    -11.66898121	     17.75526434	     17.75526434	      3.27365586	      5.23358365	      0.53381179	      0.41853598	     -4.38927207	    -13.42416302	     13.85443903	     13.85443903	     15.35155161	     -7.74316044	     -7.10830398	     -9.39102678	      2.70225415	      1.60680141	     -8.35630006	    -13.56601196	    -10.25034161	     31.41559050	     46.94500381	      0.00000000	      0.00000000	     14.88412291	    -14.84327883	    -13.90020475	     75.81989284	     47.47108890	      0.00000000	      0.00000000
      8.44200000	     -2.37148086	     -2.85223821	     -5.23688296	      1.03114256	      0.92823525	      0.44372356	     20.18663316	     -3.72176117	    -11.14842920	     18.58399887	     18.58399887	      3.93397011	      4.56882070	      0.00259123	     -0.16477434	     -4.51916097	    -13.58822993	     13.84863269	     13.84863269	     15.68366572	     -7.24007743	     -6.92270327	     -9.20245702	      2.72132253	      1.52746983	     -8.02744182	    -13.57860253	    -10.20221600	     31.88132413	     46.91724211	      0.00000000	      0.00000000	     14.79806419	    -14.79896393	    -14.07060643	     75.82255988	     47.48544300	      0.00000000	      0.00000000
      8.45514286	     -2.36880513	     -3.00403779	     -5.14704269	      1.03312947	      0.92780095	      0.44650471	     19.78595714	     -3.31178853	    -10.50487600	     19.05024605	     19.05024605	      4.25091394	      3.45638498	     -0.99691035	     -0.38216404	     -5.10081127	    -14.46687524	     14.63123177	     14.63123177	     17.19280636	     -5.25744955	     -4.99923804	     -9.02449476	      2.92543932	      1.31721703	     -7.95193584	    -13.72023296	     -9.36929210	     33.70888378	     46.72813066	      0.00000000	      0.00000000	     14.39478063	    -14.48276587	    -14.99857797	     76.15693594	     47.57519085	      0.00000000	      0.00000000
      8.46828571	     -2.43554997	     -3.08313988	     -5.03973090	      1.03503252	      0.92753402	      0.44916517	     19.44527990	     -3.09420900	    -10.37468081	     19.37808344	     19.37808344	      4.92915044	      3.35956970	     -1.28445570	     -0.75264542	     -5.37540298	    -14.38482154	     14.73465233	     14.73465233	     17.25104026	     -5.27650768	     -4.95134732	     -8.78702760	      3.04139504	      1.45305394	     -7.46062811	    -13.69655980	     -9.33339167	     33.91837012	     46.71961691	      0.00000000	      0.00000000	     14.25819413	    -14.30636065	    -14.91625314	     76.05948039	     47.56741540	      0.00000000	      0.00000000
      8.48142857	     -2.35970546	     -3.17284824	     -4.97299259	      1.03667141	      0.92743974	      0.45202282	     19.32524232	     -2.87244524	     -9.96888709	     20.25340869	     20.25340869	      5.55694473	      2.53934147	     -1.50193843	     -1.02401221	     -5.77003810	    -14.50155867	     15.36109068	     15.36109068	     17.59806132	     -5.00365758	     -4.47905782	     -8.71619073	      3.20032788	      1.16572417	     -6.60287383	    -13.74961982	     -9.07376765	     34.68835576	     46.66589042	      0.00000000	      0.00000000	     13.91019483	    -14.43106995	    -14.98097609	     75.46015276	     47.56440793	      0.00000000	      0.00000000
